<svg xmlns="http://www.w3.org/2000/svg" xmlns:xlink="http://www.w3.org/1999/xlink" width="24" height="24" viewBox="0 0 24 24">
  <defs>
    <clipPath id="clip-path">
      <rect id="矩形_2647" data-name="矩形 2647" class="cls-1" width="24" height="24" transform="translate(734 497)"/>
    </clipPath>
  </defs>
  <g id="蒙版组_165" data-name="蒙版组 165" class="cls-2" transform="translate(-734 -497)">
    <path id="mac" class="cls-1" d="M26.933,21.731a13.069,13.069,0,0,1-1.659,3.426c-1,1.458-2.038,2.928-3.675,2.954-1.61.028-2.125-.96-3.962-.96s-2.412.935-3.933.989c-1.572.064-2.782-1.593-3.788-3.044C7.859,22.123,6.276,16.673,8.4,13.02A5.869,5.869,0,0,1,13.366,10c1.541-.029,3.007,1.044,3.943,1.044.961,0,2.735-1.3,4.606-1.1A5.649,5.649,0,0,1,26.3,12.312a5.5,5.5,0,0,0-2.594,4.572,5.276,5.276,0,0,0,3.227,4.846M20.689,7.989a5.362,5.362,0,0,0,1.252-3.849A5.38,5.38,0,0,0,18.4,5.964a5,5,0,0,0-1.261,3.718,4.587,4.587,0,0,0,3.554-1.692" transform="translate(728.838 492.859)"/>
  </g>
</svg>
