<svg xmlns="http://www.w3.org/2000/svg" xmlns:xlink="http://www.w3.org/1999/xlink" width="28" height="28" viewBox="0 0 28 28">
  <defs>
    <style>
      .cls-1 {
        fill: #8c9aff;
      }

      .cls-2 {
        clip-path: url(#clip-path);
      }
    </style>
    <clipPath id="clip-path">
      <rect id="矩形_2679" data-name="矩形 2679" class="cls-1" width="28" height="28" transform="translate(404.526 622)"/>
    </clipPath>
  </defs>
  <g id="蒙版组_171" data-name="蒙版组 171" class="cls-2" transform="translate(-404.526 -622)">
    <path id="自动通知03" class="cls-1" d="M28,26.25a.875.875,0,1,1,0-1.75,5.156,5.156,0,0,1,5.25,5.25A1.653,1.653,0,0,1,31.5,31.5h-21a1.653,1.653,0,0,1-1.75-1.75,5.1,5.1,0,0,1,3.5-4.9v-5.6A8.941,8.941,0,0,1,17.5,11.2v-.7a3.5,3.5,0,1,1,7,0v.7a8.659,8.659,0,0,1,5.25,8.05v2.625a.875.875,0,1,1-1.75,0V19.25a7,7,0,0,0-14,0v7a3.51,3.51,0,0,0-3.5,3.5h21A3.51,3.51,0,0,0,28,26.25ZM19.25,10.675A5.953,5.953,0,0,1,21,10.5a5.953,5.953,0,0,1,1.75.175V10.5A1.653,1.653,0,0,0,21,8.75a1.706,1.706,0,0,0-1.75,1.925ZM25.375,35h-8.75a.875.875,0,1,1,0-1.75h8.75a.875.875,0,1,1,0,1.75Z" transform="translate(397.526 615)"/>
  </g>
</svg>
