<svg xmlns="http://www.w3.org/2000/svg" xmlns:xlink="http://www.w3.org/1999/xlink" width="28" height="28" viewBox="0 0 28 28">
  <defs>
    <style>
      .cls-1 {
        fill: #8c9aff;
      }

      .cls-2 {
        clip-path: url(#clip-path);
      }
    </style>
    <clipPath id="clip-path">
      <rect id="矩形_2677" data-name="矩形 2677" class="cls-1" width="28" height="28" transform="translate(399.027 495)"/>
    </clipPath>
  </defs>
  <g id="蒙版组_169" data-name="蒙版组 169" class="cls-2" transform="translate(-399.026 -495)">
    <path id="一键生成" class="cls-1" d="M23.044,10.759h-.07a2.511,2.511,0,0,0-1.371.407,2.6,2.6,0,0,0-2.475-1.821,2.749,2.749,0,0,0-1.44.407,2.6,2.6,0,0,0-2.476-1.82,2.688,2.688,0,0,0-1.276.319V5.53A2.62,2.62,0,0,0,11.32,2.844,2.7,2.7,0,0,0,8.614,5.53V15.957L6.97,14.32a2.866,2.866,0,0,0-3.826,0,2.833,2.833,0,0,0-.2,4L10.5,25.824a2.708,2.708,0,0,0,.507.394c1.377,1.123,2.956,1.788,6.294,1.788,7.626,0,8.332-4.114,8.332-9.189V13.445a2.6,2.6,0,0,0-2.588-2.686Zm1.164,8.057c0,4.294-.02,7.775-6.908,7.775-2.917,0-4.669-.65-6-1.968L4.151,17.518a1.327,1.327,0,0,1,.044-1.96,1.467,1.467,0,0,1,1.97-.039l3.873,3.85V5.812A1.277,1.277,0,0,1,11.32,4.54a1.2,1.2,0,0,1,1.193,1.272v8.623h.014a.712.712,0,1,0,1.4,0h.014V10.9a1.237,1.237,0,1,1,2.474,0v4.665h.015a.711.711,0,1,0,1.395,0h.015V12.315a1.219,1.219,0,0,1,1.212-1.272s1.28.079,1.28,1.272v4.1h.014a.708.708,0,0,0,.7.849.7.7,0,0,0,.695-.707.742.742,0,0,0-.014-.142h.014v-2.8a1.238,1.238,0,0,1,1.235-1.272,1.186,1.186,0,0,1,1.241,1.272v5.2ZM7.557,9.534V7.157a4.077,4.077,0,1,1,7.7-.765,1.94,1.94,0,0,1,1.312.575A5.491,5.491,0,1,0,7.557,9.533Z" transform="translate(399.112 494.994)"/>
  </g>
</svg>
