<svg xmlns="http://www.w3.org/2000/svg" xmlns:xlink="http://www.w3.org/1999/xlink" width="28" height="28" viewBox="0 0 28 28">
  <defs>
    <style>
      .cls-1 {
        fill: #7c8fff;
      }

      .cls-2 {
        clip-path: url(#clip-path);
      }
    </style>
    <clipPath id="clip-path">
      <rect id="矩形_2678" data-name="矩形 2678" class="cls-1" width="28" height="28" transform="translate(404.999 566)"/>
    </clipPath>
  </defs>
  <g id="蒙版组_177" data-name="蒙版组 177" class="cls-2" transform="translate(-404.999 -566)">
    <g id="云存储02" transform="translate(404.708 565.641)">
      <path id="路径_7801" data-name="路径 7801" class="cls-1" d="M19.215,27.139,5.591,27.1l-.219-.029a6,6,0,0,1,.849-11.931,6.847,6.847,0,0,1,13.69,0,6.006,6.006,0,0,1,5.207,8.629.858.858,0,1,1-1.542-.753A4.241,4.241,0,0,0,24,21.137a4.287,4.287,0,0,0-4.287-4.287,4.233,4.233,0,0,0-.429.023,1.017,1.017,0,0,1-1.115-1.1c.013-.151.02-.3.02-.444a5.133,5.133,0,1,0-10.266,0c0,.143.007.3.021.454a1.019,1.019,0,0,1-1.143,1.1,4.287,4.287,0,0,0-1.189,8.487l.081.011,13.514.04a.857.857,0,0,1,0,1.715ZM19.12,15.167Zm8.3-1.83H27.38a.857.857,0,0,1-.814-.9c0-.143.011-.286.011-.429a8.706,8.706,0,0,0-8.716-8.716.857.857,0,0,1,0-1.715A10.421,10.421,0,0,1,28.292,12.01c0,.173,0,.349-.013.52a.857.857,0,0,1-.856.807Z"/>
      <path id="路径_7802" data-name="路径 7802" class="cls-1" d="M23.719,13.431a.857.857,0,0,1-.857-.857A5.573,5.573,0,0,0,17.289,7a.857.857,0,0,1,0-1.715,7.287,7.287,0,0,1,7.287,7.287.857.857,0,0,1-.857.857Z"/>
    </g>
  </g>
</svg>
