<svg xmlns="http://www.w3.org/2000/svg" xmlns:xlink="http://www.w3.org/1999/xlink" width="24" height="24" viewBox="0 0 24 24">
  <defs>
    <style>
      .cls-1 {
        fill: #8c9aff;
      }

      .cls-2 {
        clip-path: url(#clip-path);
      }
    </style>
    <clipPath id="clip-path">
      <rect id="矩形_2678" data-name="矩形 2678" class="cls-1" width="24" height="24" transform="translate(404.526 567.248)"/>
    </clipPath>
  </defs>
  <g id="蒙版组_172" data-name="蒙版组 172" class="cls-2" transform="translate(-404.526 -567.248)">
    <g id="自动统计02" transform="translate(404.526 567.248)">
      <path id="路径_2041" data-name="路径 2041" class="cls-1" d="M13.642,26.164A11.728,11.728,0,0,1,1.929,14.451c0-.006,0-.013,0-.019A11.691,11.691,0,0,1,9.052,3.668a1.006,1.006,0,0,1,.4-.093A.836.836,0,0,1,9.778,5.18,10.041,10.041,0,0,0,3.6,14.432c0,.006,0,.013,0,.019A10.05,10.05,0,0,0,13.64,24.491h.019a10.022,10.022,0,0,0,9.227-6.107.856.856,0,0,1,.785-.555.836.836,0,0,1,.779,1.139,11.707,11.707,0,0,1-10.789,7.2h-.02Z" transform="translate(-1.929 -2.164)"/>
      <path id="路径_2042" data-name="路径 2042" class="cls-1" d="M26.964,14.635H15.952a.847.847,0,0,1-.847-.847h0V2.776a.847.847,0,0,1,.847-.847h0A11.875,11.875,0,0,1,27.811,13.788a.847.847,0,0,1-.847.847h0ZM16.517,13.223H26.4a10.852,10.852,0,0,0-9.893-9.884l.01,9.884Z" transform="translate(-3.811 -1.929)"/>
    </g>
  </g>
</svg>
