<svg xmlns="http://www.w3.org/2000/svg" xmlns:xlink="http://www.w3.org/1999/xlink" width="24" height="24" viewBox="0 0 24 24">
  <defs>
    <style>
      .cls-1 {
        fill: #7c8fff;
      }

      .cls-2 {
        clip-path: url(#clip-path);
      }
    </style>
    <clipPath id="clip-path">
      <rect id="矩形_2679" data-name="矩形 2679" class="cls-1" width="24" height="24" transform="translate(405.002 622)"/>
    </clipPath>
  </defs>
  <g id="蒙版组_176" data-name="蒙版组 176" class="cls-2" transform="translate(-405.002 -622)">
    <g id="留言" transform="translate(405.002 622.923)">
      <path id="路径_7797" data-name="路径 7797" class="cls-1" d="M5.25,10.813A1.543,1.543,0,0,0,6.75,12.4a1.585,1.585,0,0,0,0-3.165,1.543,1.543,0,0,0-1.5,1.582Z" transform="translate(-0.75 -1.319)"/>
      <path id="路径_7798" data-name="路径 7798" class="cls-1" d="M19.25,10.813a1.5,1.5,0,1,0,1.5-1.582,1.543,1.543,0,0,0-1.5,1.582Z" transform="translate(-2.75 -1.319)"/>
      <path id="路径_7799" data-name="路径 7799" class="cls-1" d="M21.009,0H2.991A3.091,3.091,0,0,0,0,3.178V15.811a3.091,3.091,0,0,0,2.991,3.178H9l3,3.165,3-3.165h6.009A3.091,3.091,0,0,0,24,15.811V3.178A3.091,3.091,0,0,0,21.009,0ZM22.5,15.811a1.548,1.548,0,0,1-1.491,1.6h-6.63l-.439.464L12,19.914l1.061,1.12L12,19.917l0,0-1.939-2.043-.439-.463H2.991a1.549,1.549,0,0,1-1.491-1.6V3.178a1.548,1.548,0,0,1,1.491-1.6H21.009a1.549,1.549,0,0,1,1.491,1.6V15.811Z" transform="translate(0)"/>
      <path id="路径_7800" data-name="路径 7800" class="cls-1" d="M12.25,10.813a1.5,1.5,0,1,0,1.5-1.582A1.543,1.543,0,0,0,12.25,10.813Z" transform="translate(-1.75 -1.319)"/>
    </g>
  </g>
</svg>
