<svg xmlns="http://www.w3.org/2000/svg" xmlns:xlink="http://www.w3.org/1999/xlink" width="24" height="24" viewBox="0 0 24 24">
  <defs>
    <style>
      .cls-1 {
        fill: #fff;
      }

      .cls-2 {
        clip-path: url(#clip-path);
      }
    </style>
    <clipPath id="clip-path">
      <rect id="矩形_2646" data-name="矩形 2646" class="cls-1" width="24" height="24" transform="translate(734 436)"/>
    </clipPath>
  </defs>
  <g id="蒙版组_166" data-name="蒙版组 166" class="cls-2" transform="translate(-734 -436)">
    <path id="Win" class="cls-1" d="M12.963,15.486a7.252,7.252,0,0,0-3.244-.866q-.215,0-.43.017a13.285,13.285,0,0,0-3.23.714c-.24.086-.486.179-.739.284L3.1,23.337a11.248,11.248,0,0,1,4.174-.946,7.537,7.537,0,0,1,4.411,1.545c.455-1.545,2.006-6.836,2.3-7.843C13.649,15.883,13.316,15.676,12.963,15.486Zm2.348,1.578L13.1,24.752a11.13,11.13,0,0,0,4.532,1.594,11.987,11.987,0,0,0,4.543-1.062l2.135-7.457a12.46,12.46,0,0,1-4.2.8,7.533,7.533,0,0,1-4.8-1.561Zm-5.175-4.3A7.5,7.5,0,0,1,14.4,14.291c.455-1.542,1.8-6.171,2.262-7.732V6.553a13.379,13.379,0,0,0-2.7-1.236,7.806,7.806,0,0,0-1.788-.2h-.028a11.548,11.548,0,0,0-4.132.971L5.829,13.767a11.438,11.438,0,0,1,4.246-1Zm12.673-3.63A7.654,7.654,0,0,1,18.06,7.549l-2.243,7.766c.006.006.017.011.022.017a8.529,8.529,0,0,0,4.775,1.492A9.911,9.911,0,0,0,24.872,15.8v-.011a.047.047,0,0,0,.014-.006L27.1,8.161A10.666,10.666,0,0,1,22.808,9.135Z" transform="translate(730.902 432.27)"/>
  </g>
</svg>
